<mxfile host="app.diagrams.net" modified="2023-05-29T13:25:30.811Z" agent="Mozilla/5.0 (Windows NT 10.0; Win64; x64) AppleWebKit/537.36 (KHTML, like Gecko) Chrome/113.0.0.0 Safari/537.36 Edg/113.0.1774.57" etag="CAoqqS-6aFCHa6QbzBOM" version="21.3.4" type="github">
  <diagram name="第 1 页" id="TUe0MpKkViwjhuMiSQQj">
    <mxGraphModel dx="1205" dy="674" grid="0" gridSize="10" guides="1" tooltips="1" connect="1" arrows="1" fold="1" page="1" pageScale="1" pageWidth="827" pageHeight="1169" math="0" shadow="0">
      <root>
        <mxCell id="0" />
        <mxCell id="1" parent="0" />
        <mxCell id="VBoI8yT1WOJlK46SDrhh-1" value="&lt;font style=&quot;font-size: 12px;&quot;&gt;开始&lt;/font&gt;" style="rounded=1;whiteSpace=wrap;html=1;absoluteArcSize=1;arcSize=14;strokeWidth=2;" vertex="1" parent="1">
          <mxGeometry x="312" y="120" width="106" height="34" as="geometry" />
        </mxCell>
        <mxCell id="VBoI8yT1WOJlK46SDrhh-2" value="用户输入预留项" style="rounded=0;whiteSpace=wrap;html=1;strokeWidth=2;" vertex="1" parent="1">
          <mxGeometry x="305" y="181" width="120" height="60" as="geometry" />
        </mxCell>
        <mxCell id="VBoI8yT1WOJlK46SDrhh-3" value="" style="endArrow=classic;html=1;rounded=0;exitX=0.5;exitY=1;exitDx=0;exitDy=0;entryX=0.5;entryY=0;entryDx=0;entryDy=0;" edge="1" parent="1" source="VBoI8yT1WOJlK46SDrhh-1" target="VBoI8yT1WOJlK46SDrhh-2">
          <mxGeometry width="50" height="50" relative="1" as="geometry">
            <mxPoint x="387" y="370" as="sourcePoint" />
            <mxPoint x="437" y="320" as="targetPoint" />
          </mxGeometry>
        </mxCell>
        <mxCell id="VBoI8yT1WOJlK46SDrhh-8" value="" style="edgeStyle=orthogonalEdgeStyle;rounded=0;orthogonalLoop=1;jettySize=auto;html=1;" edge="1" parent="1" source="VBoI8yT1WOJlK46SDrhh-4" target="VBoI8yT1WOJlK46SDrhh-7">
          <mxGeometry relative="1" as="geometry" />
        </mxCell>
        <mxCell id="VBoI8yT1WOJlK46SDrhh-15" value="" style="edgeStyle=orthogonalEdgeStyle;rounded=0;orthogonalLoop=1;jettySize=auto;html=1;" edge="1" parent="1" source="VBoI8yT1WOJlK46SDrhh-4" target="VBoI8yT1WOJlK46SDrhh-14">
          <mxGeometry relative="1" as="geometry" />
        </mxCell>
        <mxCell id="VBoI8yT1WOJlK46SDrhh-4" value="是否满足要求" style="strokeWidth=2;html=1;shape=mxgraph.flowchart.decision;whiteSpace=wrap;" vertex="1" parent="1">
          <mxGeometry x="315" y="260" width="100" height="71" as="geometry" />
        </mxCell>
        <mxCell id="VBoI8yT1WOJlK46SDrhh-6" value="" style="endArrow=classic;html=1;rounded=0;exitX=0.5;exitY=1;exitDx=0;exitDy=0;entryX=0.5;entryY=0;entryDx=0;entryDy=0;entryPerimeter=0;" edge="1" parent="1" source="VBoI8yT1WOJlK46SDrhh-2" target="VBoI8yT1WOJlK46SDrhh-4">
          <mxGeometry width="50" height="50" relative="1" as="geometry">
            <mxPoint x="387" y="370" as="sourcePoint" />
            <mxPoint x="437" y="320" as="targetPoint" />
          </mxGeometry>
        </mxCell>
        <mxCell id="VBoI8yT1WOJlK46SDrhh-13" value="" style="edgeStyle=orthogonalEdgeStyle;rounded=0;orthogonalLoop=1;jettySize=auto;html=1;" edge="1" parent="1" source="VBoI8yT1WOJlK46SDrhh-7" target="VBoI8yT1WOJlK46SDrhh-12">
          <mxGeometry relative="1" as="geometry" />
        </mxCell>
        <mxCell id="VBoI8yT1WOJlK46SDrhh-7" value="移除低优先级表项" style="whiteSpace=wrap;html=1;strokeWidth=2;" vertex="1" parent="1">
          <mxGeometry x="485" y="265.5" width="120" height="60" as="geometry" />
        </mxCell>
        <mxCell id="VBoI8yT1WOJlK46SDrhh-9" value="否" style="text;html=1;align=center;verticalAlign=middle;resizable=0;points=[];autosize=1;strokeColor=none;fillColor=none;" vertex="1" parent="1">
          <mxGeometry x="427" y="265.5" width="30" height="26" as="geometry" />
        </mxCell>
        <mxCell id="VBoI8yT1WOJlK46SDrhh-19" value="" style="edgeStyle=orthogonalEdgeStyle;rounded=0;orthogonalLoop=1;jettySize=auto;html=1;" edge="1" parent="1" source="VBoI8yT1WOJlK46SDrhh-12" target="VBoI8yT1WOJlK46SDrhh-18">
          <mxGeometry relative="1" as="geometry" />
        </mxCell>
        <mxCell id="VBoI8yT1WOJlK46SDrhh-24" value="" style="edgeStyle=orthogonalEdgeStyle;rounded=0;orthogonalLoop=1;jettySize=auto;html=1;" edge="1" parent="1" source="VBoI8yT1WOJlK46SDrhh-12" target="VBoI8yT1WOJlK46SDrhh-23">
          <mxGeometry relative="1" as="geometry" />
        </mxCell>
        <mxCell id="VBoI8yT1WOJlK46SDrhh-12" value="是否满足要求" style="rhombus;whiteSpace=wrap;html=1;strokeWidth=2;" vertex="1" parent="1">
          <mxGeometry x="495" y="352" width="100" height="71" as="geometry" />
        </mxCell>
        <mxCell id="VBoI8yT1WOJlK46SDrhh-14" value="成功添加表项" style="whiteSpace=wrap;html=1;strokeWidth=2;" vertex="1" parent="1">
          <mxGeometry x="174" y="450" width="120" height="60" as="geometry" />
        </mxCell>
        <mxCell id="VBoI8yT1WOJlK46SDrhh-16" value="是" style="text;html=1;align=center;verticalAlign=middle;resizable=0;points=[];autosize=1;strokeColor=none;fillColor=none;" vertex="1" parent="1">
          <mxGeometry x="254" y="265.5" width="30" height="26" as="geometry" />
        </mxCell>
        <mxCell id="VBoI8yT1WOJlK46SDrhh-21" value="" style="edgeStyle=orthogonalEdgeStyle;rounded=0;orthogonalLoop=1;jettySize=auto;html=1;" edge="1" parent="1" source="VBoI8yT1WOJlK46SDrhh-18" target="VBoI8yT1WOJlK46SDrhh-20">
          <mxGeometry relative="1" as="geometry" />
        </mxCell>
        <mxCell id="VBoI8yT1WOJlK46SDrhh-18" value="分配预留带宽" style="whiteSpace=wrap;html=1;strokeWidth=2;" vertex="1" parent="1">
          <mxGeometry x="485" y="450" width="120" height="60" as="geometry" />
        </mxCell>
        <mxCell id="VBoI8yT1WOJlK46SDrhh-20" value="将移除表项恢复" style="whiteSpace=wrap;html=1;strokeWidth=2;" vertex="1" parent="1">
          <mxGeometry x="485" y="534" width="120" height="60" as="geometry" />
        </mxCell>
        <mxCell id="VBoI8yT1WOJlK46SDrhh-22" value="是" style="text;html=1;align=center;verticalAlign=middle;resizable=0;points=[];autosize=1;strokeColor=none;fillColor=none;" vertex="1" parent="1">
          <mxGeometry x="561" y="417" width="30" height="26" as="geometry" />
        </mxCell>
        <mxCell id="VBoI8yT1WOJlK46SDrhh-23" value="取消添加，恢复表项" style="whiteSpace=wrap;html=1;strokeWidth=2;" vertex="1" parent="1">
          <mxGeometry x="326" y="450" width="120" height="60" as="geometry" />
        </mxCell>
        <mxCell id="VBoI8yT1WOJlK46SDrhh-25" value="否" style="text;html=1;align=center;verticalAlign=middle;resizable=0;points=[];autosize=1;strokeColor=none;fillColor=none;" vertex="1" parent="1">
          <mxGeometry x="401" y="354" width="30" height="26" as="geometry" />
        </mxCell>
        <mxCell id="VBoI8yT1WOJlK46SDrhh-29" value="" style="endArrow=none;html=1;rounded=0;exitX=0.5;exitY=1;exitDx=0;exitDy=0;" edge="1" parent="1" source="VBoI8yT1WOJlK46SDrhh-14">
          <mxGeometry width="50" height="50" relative="1" as="geometry">
            <mxPoint x="371" y="324" as="sourcePoint" />
            <mxPoint x="234" y="617" as="targetPoint" />
          </mxGeometry>
        </mxCell>
        <mxCell id="VBoI8yT1WOJlK46SDrhh-31" value="" style="endArrow=none;html=1;rounded=0;exitX=0.5;exitY=1;exitDx=0;exitDy=0;" edge="1" parent="1" source="VBoI8yT1WOJlK46SDrhh-20">
          <mxGeometry width="50" height="50" relative="1" as="geometry">
            <mxPoint x="371" y="324" as="sourcePoint" />
            <mxPoint x="545" y="618" as="targetPoint" />
          </mxGeometry>
        </mxCell>
        <mxCell id="VBoI8yT1WOJlK46SDrhh-32" value="" style="endArrow=none;html=1;rounded=0;" edge="1" parent="1">
          <mxGeometry width="50" height="50" relative="1" as="geometry">
            <mxPoint x="235" y="617" as="sourcePoint" />
            <mxPoint x="545" y="617" as="targetPoint" />
          </mxGeometry>
        </mxCell>
        <mxCell id="VBoI8yT1WOJlK46SDrhh-34" value="结束" style="rounded=1;whiteSpace=wrap;html=1;absoluteArcSize=1;arcSize=14;strokeWidth=2;" vertex="1" parent="1">
          <mxGeometry x="332" y="658" width="106" height="34" as="geometry" />
        </mxCell>
        <mxCell id="VBoI8yT1WOJlK46SDrhh-35" value="" style="endArrow=classic;html=1;rounded=0;exitX=0.5;exitY=1;exitDx=0;exitDy=0;entryX=0.5;entryY=0;entryDx=0;entryDy=0;" edge="1" parent="1" source="VBoI8yT1WOJlK46SDrhh-23" target="VBoI8yT1WOJlK46SDrhh-34">
          <mxGeometry width="50" height="50" relative="1" as="geometry">
            <mxPoint x="371" y="382" as="sourcePoint" />
            <mxPoint x="421" y="332" as="targetPoint" />
          </mxGeometry>
        </mxCell>
      </root>
    </mxGraphModel>
  </diagram>
</mxfile>
